<svg width="60" height="64" viewBox="0 0 60 64" fill="none" xmlns="http://www.w3.org/2000/svg">
<g clip-path="url(#clip0_355_54096)">
<path d="M18.7475 36.9613C20.0935 36.9613 21.4395 36.9711 22.7853 36.9545C23.1289 36.9502 23.3171 37.0905 23.4361 37.3853C23.7114 38.0671 24.0417 38.7227 24.3983 39.3658C25.1648 40.7477 26.0237 42.0731 26.8878 43.3955C27.5567 44.4192 28.2345 45.4371 28.8863 46.4719C29.4068 47.2984 30.568 47.3256 31.0848 46.5104C32.1916 44.7643 33.3637 43.0602 34.4539 41.3037C35.0682 40.3142 35.6656 39.3152 36.1706 38.2649C36.2934 38.0095 36.4025 37.7475 36.5177 37.4885C36.5679 37.3756 36.6156 37.2615 36.6876 37.1595C36.7775 37.032 36.8956 36.9581 37.0565 36.9616C37.1004 36.9625 37.1443 36.9613 37.1882 36.9613C39.8801 36.9613 42.5721 36.9612 45.264 36.9611C45.4179 36.9611 45.5715 36.9634 45.7213 37.0036C45.909 37.054 46.0828 37.1457 46.2299 37.2719C46.377 37.3982 46.4937 37.5558 46.5711 37.7329C46.6486 37.9101 46.6849 38.1023 46.6774 38.2953C46.6699 38.4883 46.6187 38.6771 46.5277 38.8478C46.4421 39.0079 46.3398 39.1593 46.2429 39.3133C41.2172 47.3041 36.1921 55.2952 31.1673 63.2866C30.9869 63.5736 30.7686 63.8054 30.443 63.9215C29.8663 64.127 29.2448 63.9208 28.907 63.3986C28.5433 62.8364 28.1912 62.2668 27.8348 61.7C23.0845 54.1465 18.3338 46.5932 13.5827 39.0402C13.4111 38.7675 13.3021 38.4856 13.3244 38.1581C13.3438 37.8582 13.4693 37.5747 13.6787 37.3577C13.888 37.1408 14.1679 37.0043 14.4687 36.9725C14.5634 36.9641 14.6584 36.9605 14.7534 36.9617C16.0848 36.9611 17.4161 36.9609 18.7475 36.9613Z" fill="white"/>
<path d="M30.0067 0.000835682C33.4083 0.000837135 36.8099 0.00105516 40.2116 0.0014898C40.3356 0.00151923 40.462 -0.00214857 40.5835 0.0184013C41.5523 0.182355 41.9917 1.29783 41.3932 2.07568C41.2378 2.27753 41.063 2.46445 40.9018 2.66195C39.5256 4.3474 38.4964 6.23037 37.6945 8.2414C36.9464 10.1174 36.4163 12.0558 36.0281 14.0344C35.7664 15.3682 35.5686 16.7117 35.4253 18.0627C35.2904 19.3346 35.1939 20.6098 35.1474 21.8883C35.1205 22.629 35.0994 23.3698 35.0731 24.1105C35.049 24.7924 34.5282 25.3151 33.8431 25.3486C33.792 25.3511 33.7407 25.352 33.6895 25.352C31.2243 25.3521 28.759 25.3521 26.2937 25.3519C26.1474 25.3519 26.0023 25.3454 25.8594 25.3041C25.3192 25.1479 24.9378 24.6756 24.9242 24.1172C24.9033 23.26 24.8785 22.403 24.8369 21.5464C24.7895 20.5738 24.72 19.6028 24.6282 18.6334C24.5019 17.3022 24.3256 15.9779 24.0877 14.662C23.5789 11.8482 22.8077 9.11509 21.548 6.5328C20.7819 4.96228 19.8465 3.50164 18.6928 2.18186C18.272 1.70057 18.2161 1.09508 18.5394 0.591057C18.7718 0.228948 19.1099 0.0379786 19.5386 0.00457373C19.6331 -0.00279629 19.7286 0.000959051 19.8237 0.000955126C23.218 0.000814122 26.6124 0.000774337 30.0067 0.000835682Z" fill="white"/>
<path d="M48.6216 17.926C48.6216 13.5732 48.6209 9.22039 48.6196 4.86756C48.6194 4.51882 48.701 4.2054 48.937 3.94265C49.479 3.33915 50.3935 3.35423 50.9197 3.9812C51.5099 4.68429 52.0916 5.39437 52.6771 6.10131C54.7915 8.65414 56.9064 11.2065 59.0219 13.7585C59.4483 14.2719 59.7655 14.8357 59.9054 15.489C60.1271 16.5245 59.9603 17.4964 59.396 18.3959C58.2358 20.2451 57.074 22.0934 55.9105 23.9406C54.3183 26.4725 52.7262 29.0044 51.134 31.5362C51.0875 31.6102 51.0428 31.6853 50.9937 31.7575C50.6609 32.2472 50.0976 32.4455 49.5318 32.2732C48.9767 32.1042 48.6261 31.6367 48.6224 31.0499C48.6188 30.4686 48.6216 29.8872 48.6216 29.3059C48.6215 25.5126 48.6215 21.7193 48.6216 17.926Z" fill="white"/>
<path d="M11.3782 17.915C11.3782 22.2242 11.3781 26.5334 11.3779 30.8425C11.3779 30.9442 11.3774 31.0461 11.37 31.1474C11.329 31.7115 10.9717 32.1355 10.4132 32.2863C9.878 32.4309 9.34107 32.2384 9.0245 31.7835C8.92897 31.6462 8.8438 31.5017 8.7547 31.3601C6.04672 27.0543 3.3384 22.7486 0.629757 18.4432C0.228105 17.8053 0.00401135 17.1173 5.97321e-05 16.3648C-0.00489636 15.4211 0.298583 14.5826 0.902155 13.8532C2.24905 12.2256 3.59645 10.5983 4.94434 8.97148C6.28247 7.35549 7.6206 5.73951 8.95874 4.12352C9.01449 4.05619 9.06782 3.98637 9.1285 3.92367C9.51636 3.52286 9.98328 3.39751 10.5095 3.58189C11.0338 3.7656 11.3295 4.14487 11.3711 4.70436C11.3787 4.80563 11.3779 4.90764 11.378 5.00931C11.3783 9.31122 11.3784 13.6131 11.3782 17.915Z" fill="white"/>
</g>
<defs>
<clipPath id="clip0_355_54096">
<rect width="60" height="64" fill="white"/>
</clipPath>
</defs>
</svg>
