<svg width="53" height="32" viewBox="0 0 53 32" fill="none" xmlns="http://www.w3.org/2000/svg">
<path d="M5.026 28.14C4.466 28.14 3.96667 28.014 3.528 27.762C3.08933 27.51 2.744 27.1647 2.492 26.726V28H0.854V17.78H2.73V21.952C2.99133 21.5133 3.332 21.168 3.752 20.916C4.18133 20.664 4.68067 20.538 5.25 20.538C5.726 20.538 6.16 20.6407 6.552 20.846C6.944 21.042 7.28 21.3173 7.56 21.672C7.84933 22.0267 8.06867 22.4327 8.218 22.89C8.37667 23.3473 8.456 23.8373 8.456 24.36C8.456 24.8827 8.36733 25.3727 8.19 25.83C8.022 26.2873 7.784 26.6933 7.476 27.048C7.168 27.3933 6.804 27.664 6.384 27.86C5.97333 28.0467 5.52067 28.14 5.026 28.14ZM4.508 26.544C4.80667 26.544 5.07733 26.488 5.32 26.376C5.572 26.2547 5.78667 26.096 5.964 25.9C6.15067 25.704 6.29067 25.4753 6.384 25.214C6.48667 24.9433 6.538 24.6633 6.538 24.374C6.538 23.9727 6.454 23.604 6.286 23.268C6.12733 22.9227 5.90333 22.6473 5.614 22.442C5.334 22.2367 5.00267 22.134 4.62 22.134C4.34933 22.134 4.088 22.1993 3.836 22.33C3.59333 22.4513 3.374 22.6193 3.178 22.834C2.99133 23.0487 2.842 23.2913 2.73 23.562V25.312C2.786 25.4987 2.87467 25.6667 2.996 25.816C3.12667 25.9653 3.276 26.096 3.444 26.208C3.612 26.3107 3.78467 26.3947 3.962 26.46C4.14867 26.516 4.33067 26.544 4.508 26.544ZM9.63495 29.428C9.80295 29.4653 9.95695 29.498 10.097 29.526C10.2463 29.554 10.3723 29.568 10.475 29.568C10.6523 29.568 10.797 29.5213 10.909 29.428C11.0303 29.344 11.147 29.1853 11.259 28.952C11.371 28.728 11.4876 28.4107 11.609 28L8.71095 20.664H10.657L12.631 26.082L14.367 20.664H16.159L13.079 29.456C12.967 29.7827 12.7943 30.0767 12.561 30.338C12.337 30.6087 12.0523 30.8187 11.707 30.968C11.371 31.1267 10.993 31.206 10.573 31.206C10.4236 31.206 10.2743 31.192 10.125 31.164C9.97562 31.1453 9.81229 31.108 9.63495 31.052V29.428Z" fill="#191919"/>
<path d="M31.9083 2.7959L33.1137 7.32208H27.7207L26.4399 2.7959H31.9083ZM42.2925 2.7959L34.8905 29.2034H40.1579L47.5599 2.7959H42.2925Z" fill="#191919"/>
</svg>
