<svg width="16" height="16" viewBox="0 0 16 16" fill="none" xmlns="http://www.w3.org/2000/svg">
<path fill-rule="evenodd" clip-rule="evenodd" d="M1 8C1 5.19108 1 3.78661 1.67412 2.77772C1.96596 2.34096 2.34096 1.96596 2.77772 1.67412C3.78661 1 5.19108 1 8 1C10.8089 1 12.2134 1 13.2223 1.67412C13.659 1.96596 14.034 2.34096 14.3259 2.77772C15 3.78661 15 5.19108 15 8C15 10.8089 15 12.2134 14.3259 13.2223C14.034 13.659 13.659 14.034 13.2223 14.3259C12.2134 15 10.8089 15 8 15C5.19108 15 3.78661 15 2.77772 14.3259C2.34096 14.034 1.96596 13.659 1.67412 13.2223C1 12.2134 1 10.8089 1 8ZM11.25 8C11.25 9.79493 9.79493 11.25 8 11.25C6.20507 11.25 4.75 9.79493 4.75 8C4.75 6.20507 6.20507 4.75 8 4.75C9.79493 4.75 11.25 6.20507 11.25 8ZM12 5C12.5523 5 13 4.55228 13 4C13 3.44772 12.5523 3 12 3C11.4477 3 11 3.44772 11 4C11 4.55228 11.4477 5 12 5Z" fill="black"/>
</svg>
