<svg width="16" height="16" viewBox="0 0 16 16" fill="none" xmlns="http://www.w3.org/2000/svg">
<path fill-rule="evenodd" clip-rule="evenodd" d="M0.996799 7.02691C4.88911 5.05119 7.48459 3.74867 8.78324 3.11936C12.4912 1.32254 13.2616 1.01042 13.7638 1.00011C13.8743 0.997843 14.1212 1.02973 14.2812 1.18096C14.4163 1.30866 14.4534 1.48116 14.4712 1.60223C14.489 1.7233 14.5112 1.9991 14.4936 2.2146C14.2926 4.6743 13.4232 10.6433 12.9809 13.3983C12.7937 14.564 12.4252 14.9548 12.0684 14.9931C11.293 15.0762 10.7043 14.3961 9.95329 13.8225C8.77816 12.9251 8.11429 12.3664 6.97362 11.4907C5.65539 10.4786 6.50994 9.92233 7.2612 9.01324C7.45781 8.77533 10.8741 5.15509 10.9402 4.82668C10.9485 4.7856 10.9561 4.6325 10.8781 4.55166C10.8 4.47081 10.6848 4.49846 10.6016 4.52045C10.4838 4.55161 8.60648 5.99723 4.96978 8.8573C4.43692 9.2836 3.95427 9.49131 3.52183 9.48042C3.04511 9.46842 2.12808 9.16638 1.44636 8.90821C0.610203 8.59154 -0.0543554 8.42412 0.00351276 7.88633C0.0336541 7.60621 0.36475 7.31974 0.996799 7.02691Z" fill="black"/>
</svg>
